<svg width="40" height="40" viewBox="0 0 40 40" fill="none" xmlns="http://www.w3.org/2000/svg">
<rect x="0.5" y="0.5" width="39" height="39" rx="7.5" stroke="#384250"/>
<g clip-path="url(#clip0_82_3610)">
<path d="M26.5014 8.58899H13.4986L7 20L13.4986 31.411H26.4957L32.9943 20L26.5014 8.58899ZM19.9971 26.0707C16.6423 26.0707 13.9265 23.3548 13.9265 20C13.9265 16.6452 16.648 13.9293 19.9971 13.9293C23.352 13.9293 26.0678 16.6452 26.0678 20C26.0678 23.3548 23.352 26.0707 19.9971 26.0707Z" fill="#F7C600"/>
<path fill-rule="evenodd" clip-rule="evenodd" d="M26.1476 19.3153C25.8281 16.4455 23.5516 14.169 20.6874 13.8552V12.4402H19.3124V13.8552C16.4425 14.1747 14.166 16.4512 13.8522 19.3153H12.4373V20.6847H13.8522C14.1717 23.5545 16.4482 25.831 19.3124 26.1448V27.5598H20.6874V26.1448C23.5573 25.8253 25.8338 23.5488 26.1476 20.6847H27.5626V19.3153H26.1476ZM24.7612 20.6847C24.4588 22.79 22.7928 24.4617 20.6874 24.7584V23.4347H19.3124V24.7584C17.2071 24.456 15.5353 22.79 15.2387 20.6847H16.5623V19.3153H15.2387C15.5411 17.21 17.2071 15.5383 19.3124 15.2416V16.5653H20.6874V15.2416C22.7928 15.544 24.4645 17.21 24.7612 19.3153H23.4375V20.6847H24.7612Z" fill="#9B7D00"/>
<path d="M19.6492 18.7505V19.6463H18.7534V20.3537H19.6492V21.2495H20.351V20.3537H21.2467V19.6463H20.351V18.7505H19.6492Z" fill="white"/>
</g>
<defs>
<clipPath id="clip0_82_3610">
<rect width="26" height="22.822" fill="white" transform="translate(7 8.58899)"/>
</clipPath>
</defs>
</svg>
