<?xml version="1.0" encoding="utf-8"?>
<!-- Generator: Adobe Illustrator 25.2.3, SVG Export Plug-In . SVG Version: 6.00 Build 0)  -->
<svg version="1.1" id="Layer_1" xmlns="http://www.w3.org/2000/svg" xmlns:xlink="http://www.w3.org/1999/xlink" x="0px" y="0px"
	 viewBox="0 0 2197.3 448" style="enable-background:new 0 0 2197.3 448;" xml:space="preserve">
<style type="text/css">
	.st0{fill:#606060;}
	.st1{fill:#232323;}
	.st2{fill:#F7C600;}
	.st3{fill-rule:evenodd;clip-rule:evenodd;fill:#9B7D00;}
</style>
<g>
	<path class="st0" d="M669.9,191.9h-44.8V63.4h-42.2V25.1h132v38.2h-45V191.9z"/>
	<path class="st0" d="M850.8,29.6c16,7,25.2,18.8,28.8,36.5c1.8,7.8,2.2,20,2.2,43.2c0,36-1.8,47.5-9.8,60
		c-11,17.5-30,23.8-70.8,23.8c-26,0-39-2.2-49.8-9c-13-8-20-18.5-23.2-34.8c-1.2-7-1.8-15.5-1.8-32c0-30.2,1.2-46.5,4.5-57.8
		c3.8-14,15.2-25.2,32-31.2c9-3,22.5-4.5,43.8-4.5C829.6,23.9,841.1,25.4,850.8,29.6z M776.1,72.1c-2.8,5.5-3.5,13.8-3.5,38.5
		c0,41.2,2,44,32.5,44c18.2,0,24-2.5,27.8-12c2.5-6.5,3.2-14,3.2-36c0-23-0.5-28.2-3-34.2c-3.5-8-9.5-10.2-27.5-10.2
		C786.1,62.1,780.1,64.1,776.1,72.1z"/>
	<path class="st0" d="M1048.3,25.1v105.2c0,2.5-1.2,21.5-1.5,23.8c-1.8,13.8-9,25-20.2,31.2c-11,6-21.8,7.8-50,7.8
		c-26.5,0-39.5-1.8-50.5-6.8c-14.8-7-21-17.2-22.2-36.8c-0.5-5-0.5-6.8-0.5-15.8V25.1h44.8v108.7c0,18,4.5,21,30,21
		c21.5,0,25.5-3.5,25.5-23.2V25.1H1048.3z"/>
	<path class="st0" d="M1222.6,97.6c0.2,14.2,0.5,27,0.5,35.7c0,24.5-3,35.5-12,45.2c-10.8,11.2-25,14.5-66,14.5
		c-24,0-34.2-1.2-44-5.5c-22.2-9.5-31-27.8-31-64c0-13.8,0.5-38.2,1-46.5c1.2-19,8.8-33.5,21.5-42c13.5-9,25.5-11.2,61-11.2
		c29.2,0,39.5,1.5,50.8,8c12.2,6.8,17.5,20,18.2,45.2h-45.2c-1.8-13.2-6.2-16-27.2-16c-18.5,0-26.8,3-30.8,11
		c-2.8,5.2-3.5,12-3.5,34.5c0,21.5,1,33,3,38.5c3,7.5,11,10.8,27.2,10.8c17,0,25-2.2,28.8-7.8c2.8-4.2,3.2-7,3.5-19.8h-31V97.6
		H1222.6z"/>
	<path class="st0" d="M1391.6,191.9h-44.8v-65.5h-58v65.5h-44.8V25.1h44.8v63h58v-63h44.8V191.9z"/>
	<path class="st1" d="M669.9,422.9h-44.8V294.4h-42.2v-38.2h132v38.2h-45V422.9z"/>
	<path class="st1" d="M730.6,256.1h84.2c24,0,34.8,2.2,44.5,9.8c10.8,8,14.8,19.8,14.8,42.2c0,24.3-3,35.5-11.2,42
		c-4.2,3.5-8.2,5-20,8v1.8c20.5,1,30.5,12,30,32.5v30.5h-45.5v-22.2c0.5-15.5-5.5-22.5-18.8-22h-33.2v44.2h-44.8V256.1z
		 M810.8,340.9c14.8,0,17.5-4,17.5-26.5c0-16.5-3.2-20-19.8-20h-33.2v46.5H810.8z"/>
	<path class="st1" d="M939.8,394.1l-8,28.8h-46.5l50-166.8h67.8l50.8,166.8h-45.5l-8.8-28.8H939.8z M969.8,289.4l-20.5,72.5h41.5
		L969.8,289.4z"/>
	<path class="st1" d="M1205.8,359.9v5c-0.2,28.8-3,37.5-14.8,47.2c-6,5-15,9-23.2,10.5c-5,1-16,1.5-31.2,1.5
		c-30.5,0-37.8-0.8-48-5.5c-14.2-6.8-23.5-18.5-26.8-34.8c-1.8-8.2-2.8-31.5-2.8-59.2c0-29,4-42.5,15.5-53.8
		c13.5-13,26.2-16,65.8-16c24.8,0,32.8,1,42.5,5.5c12.2,5.8,18.8,15.5,21,31c0.8,5.8,1,10.2,1.2,24.5h-44.2
		c-0.5-10.5-0.8-12.2-2.5-15.5c-3-5.2-9.5-7-25.8-7c-15.8,0-22.5,3-25.2,11.5c-2,5.8-2.5,14.5-2.5,49.3c0,26.2,5,31.8,29.2,31.8
		c22,0,27.8-4.2,27.8-21.2c0-0.5,0-2.8-0.2-4.8H1205.8z"/>
	<path class="st1" d="M1269.8,319.4h13.5l42.8-63.2h54l-59,82l63.8,84.8h-54.8l-46.5-65.8h-13.8v65.8h-44.8V256.1h44.8V319.4z"/>
	<path class="st1" d="M1443.1,322.9h71v30.8h-71v32.5h77.5v36.8h-122.2V256.1h120.8v36.8h-76V322.9z"/>
	<path class="st1" d="M1543.3,256.1h84.2c24,0,34.8,2.2,44.5,9.8c10.8,8,14.8,19.8,14.8,42.2c0,24.3-3,35.5-11.2,42
		c-4.2,3.5-8.2,5-20,8v1.8c20.5,1,30.5,12,30,32.5v30.5h-45.5v-22.2c0.5-15.5-5.5-22.5-18.8-22h-33.2v44.2h-44.8V256.1z
		 M1623.6,340.9c14.8,0,17.5-4,17.5-26.5c0-16.5-3.2-20-19.8-20h-33.2v46.5H1623.6z"/>
	<path class="st1" d="M1799.1,308.1v-3c0-13.2-4.5-16.2-23.5-16.2c-21.8,0-27,3-27,16.2c0,5.5,1.2,9.5,3.8,11.5
		c2.8,2.5,4.2,2.8,18.5,3.8c40.5,3,41,3,51.5,6.3c18.2,5.8,24.2,16.8,24.2,43.5c0,22.5-3.2,34-11.8,41.5
		c-11,9.5-24.5,12.5-57.5,12.5c-42.5,0-58.5-4.2-67-17.8c-5.2-8.2-6.8-17.2-6.8-37.5h42.5v3.2c0,7,1.5,11.2,5,13.8
		c3.8,3,5.8,3.2,26.2,3.2c14.5,0,16.8-0.2,20.5-3.5c3.2-2.8,4.8-6.5,4.8-13.2c0-11.8-3.5-14.5-21-15.5c-27.2-1.5-41-3-49.5-5
		c-20.8-5.2-28.2-17.5-28.2-47.3c0-20.2,4.2-32.8,13.8-39.5c11-7.8,25-10.2,57.5-10.2c35,0,49.2,3.5,57.8,14.2
		c6.2,7.5,9,17.5,9,31.5l-0.2,7.5H1799.1z"/>
	<path class="st2" d="M374.1,24H146.2L32.3,224l113.9,200h227.8L488,224L374.1,24z M260.2,330.4c-58.8,0-106.4-47.6-106.4-106.4
		s47.6-106.4,106.4-106.4c58.8,0,106.4,47.6,106.4,106.4C366.6,282.8,318.9,330.4,260.2,330.4z"/>
	<path class="st3" d="M368,212c-5.6-50.3-45.5-90.2-95.7-95.7V91.5h-24.1v24.8c-50.3,5.6-90.2,45.5-95.7,95.7h-24.8V236h24.8
		c5.6,50.3,45.5,90.2,95.7,95.7v24.8h24.1v-24.8c50.3-5.6,90.2-45.5,95.7-95.7h24.8V212H368z M343.7,236
		c-5.3,36.9-34.5,66.2-71.4,71.4v-23.2h-24.1v23.2c-36.9-5.3-66.2-34.5-71.4-71.4h23.2V212h-23.2c5.3-36.9,34.5-66.2,71.4-71.4v23.2
		h24.1v-23.2c36.9,5.3,66.2,34.5,71.4,71.4h-23.2V236H343.7z"/>
	<polygon class="st1" points="254,202.1 254,217.8 238.3,217.8 238.3,230.2 254,230.2 254,245.9 266.3,245.9 266.3,230.2 282,230.2 
		282,217.8 266.3,217.8 266.3,202.1 	"/>
	<g>
		<path class="st2" d="M1894.1,255.6h37.3h5.9h4.7c10.9,0,14.6,0.7,20.6,4.3c8.9,5.1,12.2,13.7,12.2,32c0,13.9-1.7,21-6.3,26.6
			c-3,3.7-8.9,6.6-14.9,7.4c-1.7,0.1-1.7,0.1-14.4,0.4l-4.1,0.1h-15.3V351h-25.6V255.6z M1935.7,304.5c11.4,0,12.9-1.6,12.9-13.9
			c0-8.1-1.1-11.4-4.6-13c-2.1-0.9-2.9-1-8.1-1h-16.2v27.9H1935.7z"/>
		<path class="st2" d="M1984.6,255.6h48.2c13.7,0,19.9,1.3,25.5,5.6c6.1,4.6,8.4,11.3,8.4,24.2c0,13.9-1.7,20.3-6.4,24
			c-2.4,2-4.7,2.9-11.4,4.6v1c11.7,0.6,17.4,6.9,17.2,18.6V351h-26v-12.7c0.3-8.9-3.1-12.9-10.7-12.6h-19V351h-25.6V255.6z
			 M2030.5,304.1c8.4,0,10-2.3,10-15.2c0-9.4-1.9-11.4-11.3-11.4h-19v26.6H2030.5z"/>
		<path class="st2" d="M2147.3,258.2c9.2,4,14.4,10.7,16.4,20.9c1,4.4,1.3,11.4,1.3,24.7c0,20.6-1,27.2-5.6,34.3
			c-6.3,10-17.2,13.6-40.5,13.6c-14.9,0-22.3-1.3-28.5-5.1c-7.4-4.6-11.4-10.6-13.3-19.9c-0.7-4-1-8.9-1-18.3
			c0-17.3,0.7-26.6,2.6-33c2.1-8,8.7-14.4,18.3-17.9c5.1-1.7,12.9-2.6,25-2.6C2135.1,254.9,2141.7,255.7,2147.3,258.2z
			 M2104.5,282.5c-1.6,3.1-2,7.9-2,22c0,23.6,1.1,25.2,18.6,25.2c10.4,0,13.7-1.4,15.9-6.9c1.4-3.7,1.9-8,1.9-20.6
			c0-13.2-0.3-16.2-1.7-19.6c-2-4.6-5.4-5.9-15.7-5.9C2110.2,276.8,2106.8,277.9,2104.5,282.5z"/>
	</g>
</g>
</svg>
